<?xml version="1.0" encoding="UTF-8" standalone="no"?><svg xmlns="http://www.w3.org/2000/svg" xmlns:xlink="http://www.w3.org/1999/xlink" fill="#3d2305" height="457.1" preserveAspectRatio="xMidYMid meet" version="1" viewBox="1.3 1.5 485.1 457.1" width="485.1" zoomAndPan="magnify"><g><g><g id="change1_1"><path d="m812.25 312.25h-436v-138c-0.203-167.46-242.86-169.46-243 0v138h-129v432c-0.01562 115.38 93.141 176.58 146 183l133 339c24.559 65 78.727 120.2 181 120h190v89c-0.445 35.17 18.762 53.15 50 53h219c30.918 0.15 50.125-17.83 50-53v-89h188c101.77 0.2 155.94-55 181-120l133-339c52.36-6.418 145.61-67.621 146-183v-432h-130v-138c0.46-169.46-242.2-167.46-242 0v138h-437" fill="inherit" transform="matrix(.3 0 0 -.3 0 460)"/></g><g id="change2_1"><path d="m812.25 935.25h-525l100 263c12.742 37.17 31.5 64.25 75 65h700c44.01-0.75 62.76-27.83 75-65l100-263h-525" fill="#ffffff" transform="matrix(.3 0 0 -.3 0 460)"/></g><g id="change2_2"><path d="m258.25 576.25c-61.57-0.148-111.76 51.063-112 114 0.242 63.387 50.43 114.6 112 115 62.23-0.402 112.41-51.613 112-115 0.414-62.937-49.77-114.15-112-114" fill="#ffffff" transform="matrix(.3 0 0 -.3 0 460)"/></g><g id="change2_3"><path d="m1366.2 576.25c62.07-0.148 112.26 51.063 112 114 0.26 63.387-49.93 114.6-112 115-61.73-0.402-111.91-51.613-112-115 0.09-62.937 50.27-114.15 112-114" fill="#ffffff" transform="matrix(.3 0 0 -.3 0 460)"/></g></g></g></svg>