<?xml version="1.0" encoding="UTF-8" standalone="no"?><svg xmlns="http://www.w3.org/2000/svg" xmlns:xlink="http://www.w3.org/1999/xlink" fill="#000000" height="1299.6" preserveAspectRatio="xMidYMid meet" version="1" viewBox="576.4 576.4 1299.6 1299.6" width="1299.6" zoomAndPan="magnify"><g id="change1_1"><path d="M 1478.878906 1876.074219 L 1443.578125 1840.773438 C 1447.515625 1759.761719 1456.898438 1679.074219 1465.230469 1598.421875 C 1343.367188 1495.855469 1220.339844 1393.644531 1105.996094 1282.539062 L 620.550781 1856.234375 L 576.433594 1812.101562 C 622.375 1712.191406 672.324219 1614.195312 721.464844 1515.832031 L 686.757812 1481.113281 C 674.550781 1468.945312 674.550781 1449.164062 686.757812 1436.996094 C 698.941406 1424.816406 718.703125 1424.816406 730.875 1436.996094 L 750.851562 1456.964844 L 810.339844 1339.953125 L 774.996094 1304.605469 C 762.808594 1292.4375 762.808594 1272.675781 774.996094 1260.460938 C 787.195312 1248.285156 806.941406 1248.285156 819.128906 1260.460938 L 840.058594 1281.410156 C 862.003906 1236.488281 886.097656 1192.671875 908.117188 1147.792969 C 928.828125 1105.601562 914.351562 1127.15625 929.46875 1106.015625 C 841.367188 1015.042969 752.523438 924.1875 673.007812 825.480469 C 647.421875 793.726562 610.964844 753.601562 599.683594 711.984375 C 593.980469 680.574219 596.769531 644.351562 620.550781 620.574219 C 644.332031 596.785156 680.554688 594 711.957031 599.707031 C 780.808594 612.183594 1061.875 885.351562 1105.996094 929.480469 C 1222.167969 869.078125 1164.046875 899.222656 1280.351562 839.0625 L 1260.449219 819.160156 C 1248.261719 806.960938 1248.261719 787.210938 1260.449219 775.011719 C 1272.640625 762.84375 1292.390625 762.84375 1304.589844 775.011719 L 1338.636719 809.078125 L 1455.46875 749.402344 L 1436.960938 730.894531 C 1424.761719 718.707031 1424.761719 698.945312 1436.960938 686.777344 C 1449.152344 674.566406 1468.914062 674.566406 1481.078125 686.777344 L 1513.925781 719.582031 L 1514.90625 719.0625 C 1612.78125 668.636719 1710.808594 619.355469 1812.09375 576.433594 L 1856.210938 620.574219 C 1679.78125 769.023438 1672.101562 776.277344 1494.140625 922.910156 C 1422.035156 982.296875 1348.566406 1039.695312 1282.308594 1105.820312 C 1390.246094 1221.753906 1493.449219 1342.035156 1593.308594 1465.003906 C 1675.53125 1459.363281 1758.058594 1440.363281 1840.753906 1443.585938 L 1876.054688 1478.902344 C 1818.953125 1521.972656 1752.199219 1551.292969 1694.488281 1593.292969 C 1664.554688 1615.082031 1639.820312 1644.453125 1613.808594 1670.542969 L 1478.878906 1876.074219" fill="#3d2305"/></g></svg>