<?xml version="1.0" encoding="UTF-8" standalone="no"?><svg xmlns="http://www.w3.org/2000/svg" xmlns:xlink="http://www.w3.org/1999/xlink" fill="#000000" height="1151.6" preserveAspectRatio="xMidYMid meet" version="1" viewBox="-0.9 0.0 859.0 1151.6" width="859" zoomAndPan="magnify"><g id="change1_1"><path d="M 661.199219 742.808594 C 646.847656 726.058594 644.785156 701.226562 656.316406 682.203125 C 668.601562 661.933594 692.960938 652.5625 715.058594 656.75 C 739.507812 661.386719 759.566406 682.328125 759.960938 709.132812 C 759.617188 732.578125 744.023438 752.300781 723.085938 759.378906 C 701.453125 766.695312 676.574219 760.75 661.199219 742.808594 Z M 191.683594 656.75 C 216.132812 661.386719 236.191406 682.328125 236.585938 709.132812 C 236.242188 732.578125 220.648438 752.300781 199.710938 759.378906 C 178.078125 766.695312 153.199219 760.75 137.824219 742.808594 C 123.472656 726.058594 121.410156 701.226562 132.941406 682.203125 C 145.226562 661.933594 169.585938 652.5625 191.683594 656.75 Z M 102.085938 368.722656 C 102.085938 331.800781 102.085938 294.875 102.085938 257.953125 C 102.085938 250.300781 102.085938 242.648438 102.085938 234.996094 C 102.558594 188.894531 140.867188 156.554688 182.90625 156.488281 C 197.792969 156.464844 212.679688 156.488281 227.566406 156.488281 C 293.648438 156.488281 359.726562 156.488281 425.808594 156.488281 C 493.898438 156.488281 561.988281 156.488281 630.078125 156.488281 C 646.972656 156.488281 663.867188 156.488281 680.765625 156.488281 C 690.15625 156.488281 699.402344 157.242188 708.484375 160.078125 C 733.257812 167.8125 754.027344 188.335938 761.152344 214.722656 C 764.265625 226.261719 763.839844 237.945312 763.839844 249.773438 C 763.839844 266.203125 763.839844 282.628906 763.839844 299.058594 C 763.839844 332.46875 763.839844 365.882812 763.839844 399.292969 C 763.839844 415.714844 761.21875 431.121094 752.753906 445.300781 C 738.628906 468.953125 713.035156 483.226562 686.671875 483.789062 C 675.921875 484.023438 665.148438 483.808594 654.398438 483.808594 C 592.082031 483.808594 529.765625 483.808594 467.445312 483.808594 C 396.871094 483.808594 326.300781 483.808594 255.726562 483.808594 C 234.636719 483.808594 213.546875 483.808594 192.453125 483.808594 C 188.726562 483.808594 184.996094 483.835938 181.269531 483.808594 C 159.453125 483.640625 138.371094 474.953125 123.035156 458.4375 C 109.183594 443.515625 102.117188 424.058594 102.085938 403.3125 C 102.066406 391.78125 102.085938 380.253906 102.085938 368.722656 Z M 117.59375 806.726562 C 138.261719 806.726562 158.929688 806.726562 179.597656 806.726562 C 232.789062 806.726562 285.984375 806.726562 339.175781 806.726562 C 403.292969 806.726562 467.40625 806.726562 531.523438 806.726562 C 586.945312 806.726562 642.367188 806.726562 697.792969 806.726562 C 716.117188 806.726562 734.441406 806.726562 752.769531 806.726562 C 758.472656 806.726562 764.175781 806.726562 769.878906 806.726562 C 771.625 806.726562 773.574219 806.929688 775.46875 806.957031 C 775.46875 812.773438 775.46875 818.59375 775.46875 824.410156 C 754.800781 824.410156 734.132812 824.410156 713.464844 824.410156 C 660.269531 824.410156 607.078125 824.410156 553.882812 824.410156 C 489.769531 824.410156 425.652344 824.410156 361.535156 824.410156 C 306.113281 824.410156 250.691406 824.410156 195.269531 824.410156 C 176.941406 824.410156 158.617188 824.410156 140.292969 824.410156 C 134.589844 824.410156 128.886719 824.410156 123.183594 824.410156 C 121.4375 824.410156 119.484375 824.207031 117.59375 824.179688 C 117.59375 818.363281 117.59375 812.546875 117.59375 806.726562 Z M 820.304688 98.089844 C 802.414062 79.789062 779.558594 66.960938 755.175781 61.398438 C 741.496094 58.28125 727.765625 58.058594 713.871094 58.058594 C 681.582031 58.058594 649.296875 58.058594 617.007812 58.058594 C 615.957031 58.058594 614.90625 58.058594 613.855469 58.058594 C 613.902344 51.441406 613.871094 44.808594 612.210938 38.378906 C 609.328125 27.199219 602.609375 17.441406 593.789062 10.601562 C 583.574219 2.679688 571.636719 0 559.207031 0 C 537.09375 0 514.976562 0 492.863281 0 C 434.730469 0 376.597656 0 318.464844 0 C 307.363281 0 296.742188 0.699219 286.542969 6.21875 C 275.839844 12.019531 267.277344 21.921875 262.929688 33.738281 C 260.019531 41.640625 259.824219 49.789062 259.835938 58.058594 C 228.316406 58.058594 196.796875 58.058594 165.277344 58.058594 C 153.222656 58.058594 141.136719 57.78125 129.082031 58.101562 C 99.101562 58.898438 69.960938 70.089844 46.628906 89.910156 C 24.265625 108.921875 8.011719 136.050781 2.429688 165.8125 C 0.53125 175.914062 0.0976562 186.078125 0.0976562 196.328125 C 0.0976562 218.453125 0.0976562 240.574219 0.0976562 262.699219 C 0.0976562 301.730469 0.0976562 340.761719 0.0976562 379.792969 C 0.0976562 425.96875 0.0976562 472.148438 0.0976562 518.324219 C 0.0976562 561.886719 0.0976562 605.449219 0.0976562 649.011719 C 0.0976562 680.101562 0.0976562 711.191406 0.0976562 742.28125 C 0.0976562 762.011719 -0.921875 782.078125 3.625 801.386719 C 18.054688 862.652344 73.992188 903.167969 132.699219 903.488281 C 138.386719 903.519531 144.070312 903.507812 149.757812 903.496094 C 144.128906 928.945312 138.503906 954.394531 132.875 979.84375 C 123.203125 1023.589844 113.53125 1067.339844 103.855469 1111.089844 C 101.632812 1121.160156 99.40625 1131.230469 97.179688 1141.300781 C 96.382812 1144.898438 99.296875 1147.851562 102.679688 1147.089844 C 135.210938 1139.691406 167.746094 1132.300781 200.277344 1124.910156 C 201.683594 1124.589844 203.128906 1123.128906 203.402344 1121.621094 C 207.925781 1096.609375 212.449219 1071.589844 216.972656 1046.570312 C 224.144531 1006.898438 231.316406 967.238281 238.492188 927.578125 C 239.941406 919.546875 241.394531 911.519531 242.847656 903.488281 C 287.589844 903.488281 332.335938 903.488281 377.078125 903.488281 C 449.808594 903.488281 522.535156 903.488281 595.261719 903.488281 C 610.835938 903.488281 626.40625 903.488281 641.976562 903.488281 C 649.925781 929.445312 657.871094 955.402344 665.816406 981.359375 C 678.976562 1024.351562 692.140625 1067.351562 705.300781 1110.339844 C 708.34375 1120.28125 711.382812 1130.210938 714.425781 1140.140625 C 715.070312 1142.25 716.6875 1143.441406 718.734375 1143.601562 C 749.015625 1145.878906 779.292969 1148.148438 809.570312 1150.429688 C 813.910156 1150.761719 818.246094 1151.078125 822.585938 1151.410156 C 825.289062 1151.609375 827.921875 1148.199219 826.898438 1145.449219 C 816.511719 1117.5 806.128906 1089.550781 795.746094 1061.601562 C 779.199219 1017.058594 762.65625 972.53125 746.113281 928 C 743.007812 919.644531 739.902344 911.285156 736.800781 902.929688 C 801.832031 896.851562 857.59375 841.976562 858.070312 771.058594 C 858.070312 735.484375 858.070312 699.910156 858.070312 664.339844 C 858.070312 589.804688 858.070312 515.269531 858.070312 440.730469 C 858.070312 374.140625 858.070312 307.542969 858.070312 240.949219 C 858.070312 225.253906 858.070312 209.558594 858.070312 193.859375 C 858.070312 157.617188 845.136719 123.5 820.304688 98.089844" fill="#3d2305"/></g></svg>