<?xml version="1.0" encoding="UTF-8" standalone="no"?><svg xmlns="http://www.w3.org/2000/svg" xmlns:xlink="http://www.w3.org/1999/xlink" fill="#000000" height="413.2" preserveAspectRatio="xMidYMid meet" version="1" viewBox="0.0 0.0 500.0 413.2" width="500" zoomAndPan="magnify"><g><g id="change1_1"><path d="M0 0H500V413.202H0z" fill="#ffffff"/></g><g id="change2_1"><path d="M0 0H500V413.202H0z" fill="#e6e6e6" opacity="0.3"/></g><g id="change3_1"><path d="M500,67.7393417v64.4471512l-9.9800415-1.7553101 c-0.8130493-0.4554596-2.1765137-1.2397766-4.0874939-2.4109802c1.21875-2.9416809,1.8918152-6.1657791,1.8918152-9.5432281 c0-7.2002335-3.0613708-13.6954193-7.9459229-18.264267L500,67.7393417z M452.6770325,0h-93.5310364 c7.3937988,14.7866774,17.4391785,31.5374718,30.7489624,47.5584412L452.6770325,0z M407.5242615,391.8707886l-0.0918274,0.2247314 l-8.6705627,21.1059875H500v-37.2191467l-86.5776978-11.8276062L407.5242615,391.8707886z M270.1534729,402.5848999 l7.5497742,10.6166077h30.9266357l-35.1708374-17.8284912L270.1534729,402.5848999z M447.3725891,204.6020813L500,212.0755005 v-40.6301117l-44.3361816-5.7122803L447.3725891,204.6020813z M150.0054169,109.244278l13.2999268,3.0820999l7.75383,20.9608231 c0.3123779-0.6352997,0.6158295-1.2574768,0.9245453-1.8878326c-0.2843018,0.5804443-0.5630493,1.1525879-0.8504639,1.7371063 l13.5497589,18.2147217l84.5310364-61.7209854L252.8933258,67.400856l-0.1270447-0.3192673l-13.1803284-33.0979881 c-0.270813-0.1542015-0.5172272-0.3874283-0.7059631-0.7353783c-2.9582977-5.4563446-4.1148987-12.2573128-5.7931976-18.2097683 C231.6838379,10.0622292,230.4459381,5.0495129,229.3645782,0h-59.0827026l-56.2628708,24.7920341l35.9327011,84.5641632 C149.9699554,109.3186035,149.9874115,109.2819901,150.0054169,109.244278z M28.2247066,158.1298828 c0.2492752-0.7389679,0.5288162-1.4645844,0.8229427-2.1832428L0,169.8000488v60.5677948 c0.8350866,1.3262482,1.6659627,2.6622009,2.5069685,3.9742432L28.2247066,158.1298828z M417.5066833,94.7406845 c-5.2258606-4.4659042-10.7571411-9.2960358-16.6062317-14.5297165c-4.5909424-4.1076355-8.92099-8.345192-13.0007935-12.6642685 L340.32724,103.5835648l24.1383057,31.5000687L417.5066833,94.7406845z M270.1752625,266.2739868l81.9573059-63.7035217 l-51.9942627-69.4445953l-82.2959747,62.9322052L270.1752625,266.2739868z M268.6622314,392.9415283l-26.3563538-13.3604126 l-0.7987061-0.7732544c-32.9578857-31.8856812-70.9940186-87.3022766-113.5074081-165.281311c0-0.000061,0-0.000061,0-0.0001221 c-5.3624878-9.8358459-10.7954636-20.0270691-16.2991638-30.5791168 c-8.047287-15.4289398-16.2443161-31.6211395-24.5873718-48.5709839L54.297287,149.394455 c-5.6983604,2.6071167-10.114769,7.5071869-12.1177559,13.4442596l-29.3481216,86.9707489v-0.000061L1.3395557,283.8639526 L0,287.8337402v9.0519104l98.9363708,91.8183289l34.0241852,24.4975281h138.1497955l-7.1348572-10.0332336L268.6622314,392.9415283 z M458.1947021,301.7625732l-2.3882751,17.8878784l18.8528442,2.5170593l2.3882751-17.8878784L458.1947021,301.7625732z M430.8538513,256.4160156l-41.5345154-14.6555481l-44.4928284,73.0378418l64.8484192,41.1487427L430.8538513,256.4160156z M106.9998856,22.0131512L97.6461258,0h-56.382534c5.5939484,12.8278694,11.9476852,27.1758595,18.949173,42.6296921 L106.9998856,22.0131512z" fill="#e6e6e6"/></g><g id="change4_3"><path d="M359.2957764,30.5092258l-48.0695801,35.0983887l20.1426392,26.2856979l46.7420959-35.4076653 C370.9623413,47.8682098,364.72229,39.0925064,359.2957764,30.5092258z" fill="#e6e6e6"/></g><g id="change4_1"><path d="M462.6973267,133.4789276c8.312561,0,15.051239-6.7386093,15.051239-15.0511551 c0-8.3124771-6.738678-15.0511551-15.051239-15.0511551c-8.3125305,0-15.0509338,6.738678-15.0509338,15.0511551 C447.6463928,126.7403183,454.3847961,133.4789276,462.6973267,133.4789276z" fill="#e6e6e6"/></g><g id="change5_1"><path d="M25.1645126,0c6.1943474,14.3044205,13.4294243,30.7319183,21.510025,48.5950851L9.9311533,64.7859421 L0,42.1650696V0H25.1645126z M0,75.033432v88.8139191l33.6354103-16.0417786 c1.3759232-1.855072,2.9225273-3.5776672,4.6128998-5.151001L7.1735678,71.8724899L0,75.033432z M210.6165314,319.3726807 c13.668808,18.8616028,27.222168,35.2619629,40.3399048,48.081665l90.2465363,45.7471619h51.7492371l9.4176025-22.9237671 l6.1120911-28.723877l-138.8121643-88.0818176L210.6165314,319.3726807z M477.0678101,0L399.723938,58.5893326 c3.475769,3.6334381,7.1413574,7.1965103,10.9968567,10.6459045c5.432251,4.8606491,10.5782776,9.3567581,15.4618835,13.538353 L500,8.1498594V0H477.0678101z M414.5436401,358.8847046L500,370.5591431V266.4271545l-63.983551-8.4574585 L414.5436401,358.8847046z M421.7003784,98.3021698l-53.9666138,41.0466614l39.5747375,20.3320465l34.8540039-27.0885315 c-2.7580566-4.0207977-4.375824-8.8818817-4.375824-14.1153717c0-2.1823349,0.2809448-4.3003464,0.8083191-6.3201752 C433.4112854,108.0357361,427.7779236,103.4295502,421.7003784,98.3021698z M213.7693481,199.4528503l-53.7781677,40.7377014 c6.8695526,11.8733673,13.8119659,23.4544373,20.7841034,34.6068726l62.5395966-35.5166473L213.7693481,199.4528503z M432.0591125,250.7528534l23.0793152-108.463623c-1.3934326-0.4497223-2.733429-1.0185089-4.0089111-1.694519 l-59.0089722,96.5748291L432.0591125,250.7528534z M329.0355225,162.0317535l31.1534119-23.6952209l-24.1448364-31.5084839 l-30.5483704,23.1407776L329.0355225,162.0317535z M327.0857544,95.1378708l-20.1265869-26.264679L276.7336731,90.793045 l20.045105,27.3027267L327.0857544,95.1378708z" fill="#e6e6e6"/></g><g id="change2_2"><path d="M111.9172897,19.846014L103.4842834,0h53.4714203L111.9172897,19.846014z M0,55.5334129V69.161705 l5.0133266-2.209053L0,55.5334129z M239.9770355,25.9942894c0.5381012-0.5031261,1.0656891-1.0049706,1.610199-1.5085869 l16.0443268,40.288765l15.9221802,21.6868057l82.9094238-60.537281C350.9772949,16.8443413,346.4147339,8.0676622,342.640625,0 H233.2985992c0.885376,4.0441747,1.8755188,8.0644283,2.9725037,12.061738 C237.4708099,16.4336014,238.4331818,21.4363098,239.9770355,25.9942894z M430.2857361,86.2666092 c5.7989807,4.9023285,11.1914368,9.3261871,16.1620483,13.2940216c4.3895569-3.7998428,10.1099548-6.1024475,16.3576965-6.1024475 c4.6593933,0,9.0228271,1.2840271,12.7620239,3.5112076L500,59.094841V15.7907953L430.2857361,86.2666092z M437.1385193,252.6978149L500,261.0070496v-45.7389984l-52.8760986-7.5986481L437.1385193,252.6978149z M0,304.2162781 v108.9852295h123.7654495l-28.3623734-20.4452515L0,304.2162781z M484.2113953,144.0336761 c-0.3336487-0.1706848-2.9253845-1.5145111-7.8049622-4.5664673c-3.9177246,2.5476074-8.5892029,4.0285492-13.6009521,4.0285492 c-0.8114014,0-1.6127625-0.042099-2.4047546-0.1179504l-3.4980774,16.4395752L500,165.7962646v-18.6564484l-14.8039551-2.6037445 L484.2113953,144.0336761z M356.3768311,199.2716217l46.6891174-36.2932892l-39.6088562-20.3766022l-31.2415771,23.761673 L356.3768311,199.2716217z M183.6474762,279.3640747c7.9338379,12.5394897,15.8988647,24.4893799,23.833374,35.6407166 l58.4511261-45.432373l-19.4100189-25.980072L183.6474762,279.3640747z M445.6642151,136.6761322l-85.0423889,66.100708 l27.0341492,31.3942566l59.0188293-96.590744C446.3293457,137.2882996,445.9932861,136.9861755,445.6642151,136.6761322z M274.1772156,269.9685059l66.1121216,41.9503479l44.5654297-73.1567688l-28.7001343-32.5127869L274.1772156,269.9685059z M292.4951782,121.3406754l-20.1011658-27.3791199l-84.5039825,61.7007828l21.3716278,28.7288055L292.4951782,121.3406754z M168.4612274,138.5472412c-0.0234985,0.047287-0.0481567,0.0962982-0.07164,0.1437073l-21.5502472-22.9210358l0.0002441-0.0039063 c-0.0002441,0.0006714-0.0007324,0.0013428-0.0009766,0.0020752L109.101181,26.9588051L62.4343948,47.5221329 c16.490715,36.2388535,36.3236084,78.038887,57.9055176,119.8558884 c5.3672562,10.3999786,10.8429489,20.8002167,16.4020004,31.1167297c0.2334595-0.410141,0.464798-0.8101349,0.6985168-1.2224579 c-0.2334747,0.4118958-0.4650574,0.8134766-0.6980286,1.2231903c5.2261047,9.69841,10.5255585,19.3227997,15.8792114,28.801178 l52.3569641-39.660965L168.4612274,138.5472412z M48.1684189,136.0025024l32.4756241-14.8619156 C69.1606064,97.4863663,58.4703407,74.566246,48.893055,53.4889908L12.0904799,69.70578l30.4999123,69.4704132 C44.3484383,137.9690552,46.2090607,136.8989716,48.1684189,136.0025024z" fill="#e6e6e6"/></g><g id="change1_2"><path d="M394.3712463 7.8567605L390.288269 2.5290866 378.4976807 11.2258787 382.6489258 16.5804729z" fill="#ffffff"/></g><g id="change4_4"><path d="M117.8652878,166.942688l-0.485733-0.9416962l0.5057449-0.9304657 c7.9338455-14.5959778,19.4133148-35.9107361,27.4687042-52.4232941l1.3703156-2.8094559l22.7866058,27.9319839 l-0.5731201,1.154541c-8.8662567,17.8565063-31.4532013,57.9436035-31.6650696,58.3160706l-1.7857513,3.1365356 l-1.7125244-3.177536C129.0469666,188.4258575,123.9914093,178.8117218,117.8652878,166.942688z M225.6063538,0 c-30.8040466,27.207653-51.9959717,51.4917984-61.8490753,71.0155563 c-4.1846466,8.2926483-14.963089,34.0654297-15.4195404,35.1584549l-0.4505768,1.0783844l22.3867798,28.7247772 l1.4088745-2.8655853c7.8523254-15.9692307,12.6286316-27.3144455,16.4661865-36.4306488 c1.8892517-4.4873199,3.5207367-8.3624573,5.2259369-12.1136093C203.9092255,61.3923798,244.0750275,27.0049362,279.2055969,0 H225.6063538z M110.4982224,331.0177612c-9.3568802-8.1754761-18.1948242-15.8974609-25.4940338-23.5056763 c-7.1864471-7.4895935-7.9567871-19.0061646-1.8326111-27.382782 c13.8681107-18.966156,36.0152054-52.0703583,45.5727158-68.1191559l0.583374-0.9792786l-0.5457764-1.0012512 c-1.2346039-2.2651367-2.45504-4.4917145-3.669136-6.7075348c-3.975708-7.2562561-7.7312469-14.1097717-11.7938538-21.8986206 l-1.6993408-3.2575989l-1.8130875,3.1956024c-11.0835571,19.5368195-33.365387,54.0191498-48.7033958,76.5445709 c-4.4858513,6.5894165-11.9315186,10.5231323-19.9171066,10.5231323c-6.0109138,0-11.7689533-2.2426758-16.2128239-6.3145447 c-8.5796986-7.8616028-10.7716093-10.3410492-11.3144617-11.1192017l-0.8272753-1.1859589L0.0960487,287.3948364 c9.5414066,12.0242615,23.3964596,20.6151733,36.3194618,29.0577087c4.3452568,2.8387451,8.4503326,5.5207825,12.0027924,8.0715027 c44.8926926,32.2358093,77.450943,60.4543457,100.7598267,88.6774597h36.2379456 C160.5058441,374.7146912,133.0248108,350.7003784,110.4982224,331.0177612z" fill="#e6e6e6"/></g><g id="change1_3"><path d="M12.0189266,252.1393433l0.0109844,0.0146484 C12.0267382,252.1495361,12.0221004,252.1437378,12.0189266,252.1393433z" fill="#ffffff"/></g><g id="change1_4"><path d="M49.5844345,322.8996887c-13.995285-10.049469-36.1533623-21.896637-48.7132835-37.7255249L0,287.6699219 v3.5927124c9.7150135,11.7831116,22.0459194,19.3849487,34.7745056,27.700531 c4.3174324,2.8204956,8.3952904,5.4846191,11.8941727,7.9970703c43.6604156,31.3508606,75.5597458,58.8488464,98.5812912,86.241272 h6.3569641C128.3984222,384.8172913,95.6118317,355.9502258,49.5844345,322.8996887z" fill="#ffffff"/></g><g id="change1_5"><path d="M112.4713058,328.7589111c-9.3056183-8.1307678-18.095108-15.8105469-25.3029099-23.3233337 c-6.1768951-6.4380798-6.8392258-16.3364563-1.5751038-23.5362244 c13.9107056-19.0252686,36.1337128-52.2443085,45.7280884-68.3546143l4.092865-6.9792786l4.4646149-7.8413391 c0.2122345-0.3728333,22.8390961-40.529068,31.7453766-58.4661255l1.4330444-2.8861542l-0.0793304-0.0971527l1.3961792-2.8391724 c7.8922272-16.0497742,12.6873474-27.4401474,16.5402679-36.5924759c1.8799744-4.4656525,3.5035248-8.3223038,5.1907806-12.0344009 C206.7298584,62.4347,248.5539856,27.1080647,284.1152649,0h-8.2319336 c-35.5585327,27.4702911-73.9227142,60.8466606-84.3290558,83.7401199 c-5.2719269,11.5986404-10.059845,24.886795-21.6661072,48.4895706l-19.7054901-25.2849045 c0,0,11.1589813-26.7039185,15.3599854-35.0282974C174.8649445,53.4440765,195.5162048,29.0488091,228.6365204,0h-7.5397644 c-29.7300568,26.5669823-50.2749634,50.3602676-60.0168762,69.6642838 c-4.2329865,8.3876038-15.0512085,34.2559433-15.509613,35.3530579l-1.0073547,2.410614l-1.9046173,3.9043121 c-8.0254974,16.4512405-35.4603882,68.5489883-35.4603882,68.5489883 c-11.0425491,19.464386-33.2679977,53.8579254-48.5736694,76.336853 c-3.9272537,5.7680664-10.4463615,9.2116394-17.4383888,9.2116394c-5.2588806,0-10.2969799-1.9626465-14.1861591-5.5264587 c-9.1528168-8.3869171-10.6699467-10.3216858-10.8812065-10.6243591l-2.2857628-2.4369812l-1.8028355,5.3120422 c1.2148275,1.72966,6.0000534,6.3103333,11.5926018,11.434906c5.0322418,4.611145,11.3192215,6.8397217,17.5633621,6.8397217 c8.2773972,0,16.4782715-3.9182129,21.5704384-11.3970947c14.9774933-21.9967804,37.3482895-56.5162811,48.7895584-76.6835785 c5.3389435,10.236084,10.2786713,19.09758,15.4805603,28.6389313 c-9.4132614,15.8062286-31.4739456,48.8221436-45.4684982,67.9620056 c-6.6878967,9.1469727-5.8415146,21.7710266,2.0032349,29.9474792 c24.6624222,25.7055359,64.5909119,50.8233032,99.511322,104.3051453h5.9243164 C163.6221771,373.4601746,135.4816132,348.8641052,112.4713058,328.7589111z M119.6424942,166.0252228 c9.4092331-17.3110352,19.9321213-36.9703827,27.5086136-52.5011673l19.995697,24.5107803 c-8.9093323,17.9433594-31.3855896,57.8180237-31.6120911,58.2158813 C130.1421967,186.2431641,124.8490143,176.1137543,119.6424942,166.0252228z" fill="#ffffff"/></g><g id="change4_2" opacity="0.7"><path d="M228.2495422,85.3172607l12.1747131,15.3673935l-13.1999207,10.4578476l-12.1751099-15.3674622 L228.2495422,85.3172607z M217.3699036,140.0090179l4.6302948,5.7402191l12.5739288-9.7400513l-4.5553284-5.7123108 L217.3699036,140.0090179z M394.7671814,143.3840485l11.6691284,7.5258179l13.9515686-11.0530396l-9.945282-9.8430176 L394.7671814,143.3840485z M27.71768,92.9414368l7.818861,17.3386917l16.4512367-7.418663l-7.8188591-17.3386307 L27.71768,92.9414368z M297.0929565,382.3792725l13.1043091,8.4666138l8.6871338-15.7781067l-13.5192566-8.0637817 L297.0929565,382.3792725z M353.3191223,392.4773865l22.962677,13.5419312l10.6730957-17.6669922l-23.7485046-12.8651733 L353.3191223,392.4773865z M3.2898674,354.1082153l9.1597567,8.6973877l4.6939955-4.9435425l-9.1598892-8.6973877 L3.2898674,354.1082153z M311.3677063,271.7228699l7.8260803,6.3144226l11.916687-14.3315735l-7.8260803-6.3143921 L311.3677063,271.7228699z M73.6368866,8.0294447l-17.1702118,6.8381701l7.2070427,18.0962067l17.170208-6.838171 L73.6368866,8.0294447z M144.7867889,299.18573l10.6246185,14.8961792l15.6995697-11.1977234l-10.6244965-14.8961487 L144.7867889,299.18573z M225.8712311,317.0326233l16.3231964,13.7133789l19.904541-16.4876099l-16.9992371-13.372345 L225.8712311,317.0326233z M309.9947815,225.2823334l-24.9714661-31.5196228l-11.2353821,8.901123l24.9714661,31.5198975 L309.9947815,225.2823334z M314.4837952,199.6484985l10.100769,12.7496185l14.842865-11.7594147l-10.1007996-12.7494202 L314.4837952,199.6484985z M193.0378113,364.1356201l3.5766144,5.4451904l12.0267029-7.5871582l-3.6409454-5.4760437 L193.0378113,364.1356201z M145.6999817,20.8239117l5.4138794,14.0379925l6.4128265-2.5777245l-5.3683167-14.0983334 L145.6999817,20.8239117z M378.1561279,286.6319885l30.672821,14.4283752l2.6708679-10.5270996l-28.3508301-14.0072632 L378.1561279,286.6319885z M408.6193542,25.5563183l-10.9104919-14.3310966l-12.3101196,9.3718376l10.9107666,14.3312283 L408.6193542,25.5563183z M396.9746094,87.6482239l-23.5302429,18.6284409l-8.5377197-9.8864746l-13.3116455,10.0837784 l14.9687805,19.5339508l39.6751099-30.1770859C403.1699524,93.154686,400.072937,90.4179306,396.9746094,87.6482239z M481.5516052,238.6138306l-2.3920898,14.0565186l16.3644409,2.7846069l2.3918152-14.0564423L481.5516052,238.6138306z M434.9401245,316.6393433l15.4189453,2.0584106l2.3965759-17.9505005l-15.4190674-2.0586853L434.9401245,316.6393433z M198.7735596,242.4876709l-10.6246185-14.8961487l-15.6995697,11.1976929l10.6244965,14.896225L198.7735596,242.4876709z" fill="#e6e6e6"/></g><g id="change1_6"><path d="M256.0753479,219.1796265l7.5560913,10.1218567l-5.4627075,4.0780487l-7.5561066-10.1217957 L256.0753479,219.1796265z M305.4935608,207.625l9.3804932,12.2170563l5.544281-4.4721985l-9.4075317-12.1446991 L305.4935608,207.625z M325.6859436,372.1903076l5.4465942,3.1378784l7.3352051-12.6790466l-5.65802-3.0048218 L325.6859436,372.1903076z M374.0803833,297.1835022l10.7715454,5.4690552l2.4421387-4.9830322l-10.7766724-5.5295105 L374.0803833,297.1835022z M321.9144592,281.6621399l12.4468079,9.4656677l12.2416687-16.0971985l-12.4469299-9.4656677 L321.9144592,281.6621399z M270.6205139,102.9954071l-13.2001953,10.4577789l12.1751099,15.3674622l13.1999207-10.45784 L270.6205139,102.9954071z M38.1403313,114.1068954l7.2070465,18.096199l17.1700783-6.8381653l-7.2070465-18.0962067 L38.1403313,114.1068954z M273.5583801,312.6917419l6.8227844,5.2157898l16.3350525-13.0405579l-7.1513672-5.1250916 L273.5583801,312.6917419z M52.3574409,75.0666351l-5.8510437-13.5188217l-6.1851196,2.8547363l5.8928032,13.4580231 L52.3574409,75.0666351z M64.9745636,396.8716431l13.0373383,12.9287415l11.1056442-11.198761L76.0799408,385.672821 L64.9745636,396.8716431z M148.671463,42.6076202l-17.1702118,6.8381042l7.2070465,18.0962067l17.1702118-6.8381081 L148.671463,42.6076202z M30.3347359,342.2392883L17.296999,329.3104248l-11.1052456,11.198822l13.0373421,12.9288025 L30.3347359,342.2392883z M180.493454,345.9973145l9.5509491,14.6422729l12.5773315-8.2040405l-9.5510864-14.6423645 L180.493454,345.9973145z M474.9954224,239.4669495l-6.1016235-1.0182495l-2.4667969,13.2749023l6.1644897,0.9934235 L474.9954224,239.4669495z M438.2278137,293.8762512l14.5403137,2.1032104l0.8718262-6.6922913l-14.5698547-2.1708374 L438.2278137,293.8762512z M364.1140747,152.7272949l-9.6557007,7.3439026l13.689209,16.3132019l16.7071838-12.9871674 L364.1140747,152.7272949z" fill="#ffffff"/></g><g id="change2_3"><path d="M132.6276855,241.1089325l9.5274811,14.9586945l-15.8980026,9.6018982l-9.3670044-14.3952332 L132.6276855,241.1089325z M123.7257233,29.3037586l5.8945465,14.8001041l17.2300568-6.862175l-5.8942413-14.8002834 L123.7257233,29.3037586z M206.5846863,379.8263245l9.3467407,14.329071l11.0796509-7.2271118l-9.3467407-14.3291321 L206.5846863,379.8263245z M250.9513092,296.3063049l17.2731476,13.3277588l16.6150208-13.759613l-17.8489075-13.03479 L250.9513092,296.3063049z M65.7135925,154.8115692l7.7218552,17.1240082l22.1459961-9.9865723l-7.7219162-17.124054 L65.7135925,154.8115692z M337.4519958,66.1743088l-7.0206604-9.2241478l-10.7872925,8.0990868l7.0330505,9.2148819 L337.4519958,66.1743088z M223.0774078,240.0802917l-4.0597382-5.587616l-12.2205048,8.5165405l3.9910126,5.5578918 L223.0774078,240.0802917z M428.1782837,10.9451571L419.8453674,0h-6.9216919l-10.6694946,8.1230097L413.12677,22.4041195 L428.1782837,10.9451571z M405.3710632,118.7182541l19.2012939,19.6658707l10.9970398-9.2923737l-20.6217957-19.0305099 L405.3710632,118.7182541z M386.2572937,271.5097961l13.8478699,6.8419189l8.8482361-17.9091797l-13.8478394-6.8419037 L386.2572937,271.5097961z M287.2717285,92.4223328l11.0533752,15.0549316l6.9429626-5.2594299l-8.8738403-16.4561768 L287.2717285,92.4223328z M478.7450562,271.6336975l-38.1193237-5.089386l-1.8140564,13.5879822l41.4786987,5.0220947 L478.7450562,271.6336975z M314.9141235,349.6579895l-6.9483337,12.9117126l13.7028503,7.9780273l7.3049011-13.2626038 L314.9141235,349.6579895z M326.0903015,398.0740967l11.3321533,7.2430725l19.5827637-34.0053406l-12.1075439-6.5378113 L326.0903015,398.0740967z M365.5223083,314.0477295l11.4676819,5.6657104l6.5960083-13.3505249l-11.467804-5.6658936 L365.5223083,314.0477295z" fill="#e6e6e6" opacity="0.5"/></g><g id="change5_2"><path d="M89.5810852,44.7809639l7.6023102,18.0716133l-15.5230331,6.5302734L74.057869,51.3110542 L89.5810852,44.7809639z M200.4095612,292.1737061l11.1315155,14.6018372l12.5426483-9.5617371l-11.1319427-14.6018982 L200.4095612,292.1737061z M129.3536682,270.8336182l11.1555634,17.1397095l16.0639191-8.7121887l-11.3364868-17.792511 L129.3536682,270.8336182z M221.8523407,152.3613586l8.6624451,10.9342194l14.1409302-11.2030945l-8.6624451-10.9342346 L221.8523407,152.3613586z M158.3411407,190.1733551l12.174942,15.3674774l25.6481628-19.1024628l-12.1748047-15.3672943 L158.3411407,190.1733551z M187.1339722,17.3486881L181.9416656,4.310658l-16.8618011,6.7154145l5.1924896,13.0379686 L187.1339722,17.3486881z M46.4223328,162.7575531l15.8093452,35.0577087l12.4964561-5.6351929l-15.8092194-35.0579681 L46.4223328,162.7575531z M368.4755859,0l4.9379883,6.4859104L381.9328003,0H368.4755859z M15.4892855,367.6190796 l14.6262503,13.1101685l16.9550323-18.9159851L32.4442596,348.703125L15.4892855,367.6190796z M42.1586609,80.3678589 l-6.39468-14.1807327l-16.5089035,7.4447479l6.394743,14.1806107L42.1586609,80.3678589z M160.5298157,358.7618103 l9.5176086,14.591217l15.3782349-10.0310364l-9.5176086-14.591156L160.5298157,358.7618103z M380.9819336,321.8907166 l14.0216064,6.9275818l6.5731506-13.303894l-14.021698-6.9276123L380.9819336,321.8907166z M394.7671814,84.6610641 c-0.1371155-0.1224747-0.2736816-0.24263-0.4107971-0.3652191c-2.9546204-2.6437225-5.8778076-5.4071655-8.7348022-8.2567673 l-11.8780212,8.997757l9.0966797,9.066597L394.7671814,84.6610641z M233.0299225,82.2895584l12.1750031,15.367485 l13.2000427-10.4579544l-12.1748199-15.3673019L233.0299225,82.2895584z M447.7523193,248.6021423l12.3873596,2.1078186 l5.913269-34.7507019l-12.3870544-2.1078949L447.7523193,248.6021423z M345.3851013,230.0314178l11.3348999,11.0548248 l10.4889526-10.7548981l-11.3348999-11.0547485L345.3851013,230.0314178z M467.3529663,63.8893433l-8.2010498,10.0325089 l11.6797791,9.5474472l8.2008972-10.0324478L467.3529663,63.8893433z M350.4155884,62.3589706l-17.9896851,13.280838 l5.1469116,6.4963455l17.9894104-13.280838L350.4155884,62.3589706z M260.3500366,238.6379089l12.1972046,15.3959808 l19.9110718-15.7745056l-12.1971436-15.3959198L260.3500366,238.6379089z M324.3600159,14.1486921l-38.4422913,28.0927162 l12.1749268,15.367424l38.4420471-28.0927181L324.3600159,14.1486921z M298.7805481,179.3447418l12.3502502,15.5888214 l14.7910156-11.7181244l-12.3503113-15.5888214L298.7805481,179.3447418z" fill="#e6e6e6"/></g><g id="change3_2"><path d="M253.1457825,116.4376144l12.1746826,15.3673019l-13.1999207,10.45784l-12.1750488-15.367424 L253.1457825,116.4376144z M192.8413544,224.5228424l10.6618958,14.9483185l12.8402557-9.1581879l-10.6620178-14.9484406 L192.8413544,224.5228424z M361.1387329,413.2015076h8.6844177l2.0733948-3.214325l-6.1798706-3.960144L361.1387329,413.2015076z M9.9952879,407.2450256l6.0064611,5.9564819h13.9451828l4.1912975-4.2264404l-13.0376015-12.9288635L9.9952879,407.2450256z M265.9571838,58.7464066l12.1751099,15.367485l13.1999207-10.4578362l-12.1746826-15.367424L265.9571838,58.7464066z M475.9841614,216.4781189l-2.9246521,17.1867371l16.3072815,2.7749786l2.9246521-17.1867371L475.9841614,216.4781189z M356.9669189,37.6541367l-20.7544556,15.582283l7.6393433,9.4966774l20.7669067-15.5916824L356.9669189,37.6541367z M366.1289978,256.2796936l-8.6616516-8.634201l-3.909729,4.0344696l8.6478577,8.6940002L366.1289978,256.2796936z" fill="#e6e6e6"/></g></g></svg>